<svg width="18" height="20" viewBox="0 0 18 20" fill="none" xmlns="http://www.w3.org/2000/svg">
<g clip-path="url(#clip0_7_2097)">
<path d="M9.24998 0C8.55857 0 7.99998 0.558594 7.99998 1.25V1.94922C5.16795 2.39844 2.99998 4.85156 2.99998 7.8125V9.11719C2.99998 10.8906 2.39451 12.6133 1.28904 13.9961L0.707012 14.7266C0.48045 15.0078 0.437481 15.3945 0.593731 15.7188C0.749981 16.043 1.07811 16.25 1.43748 16.25H17.0625C17.4219 16.25 17.75 16.043 17.9062 15.7188C18.0625 15.3945 18.0195 15.0078 17.7929 14.7266L17.2109 14C16.1054 12.6133 15.5 10.8906 15.5 9.11719V7.8125C15.5 4.85156 13.332 2.39844 10.5 1.94922V1.25C10.5 0.558594 9.94139 0 9.24998 0ZM9.24998 3.75H9.56248C11.8047 3.75 13.625 5.57031 13.625 7.8125V9.11719C13.625 10.9883 14.1679 12.8125 15.1758 14.375H3.3242C4.33201 12.8125 4.87498 10.9883 4.87498 9.11719V7.8125C4.87498 5.57031 6.69529 3.75 8.93748 3.75H9.24998ZM11.75 17.5H9.24998H6.74998C6.74998 18.1641 7.0117 18.8008 7.48045 19.2695C7.9492 19.7383 8.58592 20 9.24998 20C9.91404 20 10.5508 19.7383 11.0195 19.2695C11.4883 18.8008 11.75 18.1641 11.75 17.5Z" fill="black"/>
</g>
<defs>
<clipPath id="clip0_7_2097">
<path d="M0.5 0H18V20H0.5V0Z" fill="white"/>
</clipPath>
</defs>
</svg>
