<svg width="24" height="22" viewBox="0 0 24 22" fill="none" xmlns="http://www.w3.org/2000/svg">
<path d="M5.79372 17.3422C6.39841 16.9016 7.18122 16.7891 7.88435 17.0422C9.12654 17.4922 10.5187 17.75 12 17.75C17.8453 17.75 21.75 13.9766 21.75 10.25C21.75 6.52344 17.8453 2.75 12 2.75C6.15466 2.75 2.24997 6.52344 2.24997 10.25C2.24997 11.75 2.83122 13.1938 3.92341 14.4313C4.32654 14.8859 4.52341 15.4859 4.47654 16.0953C4.41091 16.9438 4.20935 17.7219 3.94685 18.4109C4.74372 18.0406 5.40466 17.6281 5.79372 17.3469V17.3422ZM0.993724 19.2453C1.0781 19.1187 1.15779 18.9922 1.23279 18.8656C1.70154 18.0875 2.14685 17.0656 2.23591 15.9172C0.829662 14.3187 -2.59331e-05 12.3641 -2.59331e-05 10.25C-2.59331e-05 4.86406 5.37185 0.5 12 0.5C18.6281 0.5 24 4.86406 24 10.25C24 15.6359 18.6281 20 12 20C10.2609 20 8.61091 19.7 7.12029 19.1609C6.56247 19.5688 5.6531 20.1266 4.57497 20.5953C3.86716 20.9047 3.06091 21.1859 2.22654 21.35C2.18904 21.3594 2.15154 21.3641 2.11404 21.3734C1.90779 21.4109 1.70622 21.4438 1.49529 21.4625C1.48591 21.4625 1.47185 21.4672 1.46247 21.4672C1.22341 21.4906 0.984349 21.5047 0.745287 21.5047C0.440599 21.5047 0.168724 21.3219 0.0515366 21.0406C-0.0656509 20.7594 -2.59429e-05 20.4406 0.210912 20.225C0.403099 20.0281 0.576537 19.8172 0.740599 19.5922C0.820287 19.4844 0.895287 19.3766 0.965599 19.2687C0.970287 19.2594 0.974974 19.2547 0.979662 19.2453H0.993724Z" fill="black"/>
</svg>
