<svg width="25" height="21" viewBox="0 0 25 21" fill="none" xmlns="http://www.w3.org/2000/svg">
<path d="M10.6625 19.9469L10.5453 19.8391L2.33281 12.2125C0.89375 10.8766 0.078125 9.00156 0.078125 7.0375V6.88281C0.078125 3.58281 2.42187 0.75156 5.66562 0.13281C7.5125 -0.22344 9.40156 0.203122 10.9062 1.2625C11.3281 1.5625 11.7219 1.90937 12.0781 2.30781C12.275 2.08281 12.4859 1.87656 12.7109 1.68437C12.8844 1.53437 13.0625 1.39375 13.25 1.2625C14.7547 0.203122 16.6437 -0.22344 18.4906 0.128123C21.7344 0.746873 24.0781 3.58281 24.0781 6.88281V7.0375C24.0781 9.00156 23.2625 10.8766 21.8234 12.2125L13.6109 19.8391L13.4938 19.9469C13.1094 20.3031 12.6031 20.5047 12.0781 20.5047C11.5531 20.5047 11.0469 20.3078 10.6625 19.9469ZM11.2859 4.79687C11.2672 4.78281 11.2531 4.76406 11.2391 4.74531L10.4047 3.80781L10.4 3.80312C9.31719 2.58906 7.68125 2.03593 6.0875 2.34062C3.90312 2.75781 2.32812 4.66093 2.32812 6.88281V7.0375C2.32812 8.37344 2.88594 9.65312 3.86563 10.5625L12.0781 18.1891L20.2906 10.5625C21.2703 9.65312 21.8281 8.37344 21.8281 7.0375V6.88281C21.8281 4.66562 20.2531 2.75781 18.0734 2.34062C16.4797 2.03593 14.8391 2.59375 13.7609 3.80312C13.7609 3.80312 13.7609 3.80312 13.7562 3.80781C13.7516 3.8125 13.7563 3.80781 13.7516 3.8125L12.9172 4.75C12.9031 4.76875 12.8844 4.78281 12.8703 4.80156C12.6594 5.0125 12.3734 5.12969 12.0781 5.12969C11.7828 5.12969 11.4969 5.0125 11.2859 4.80156V4.79687Z" fill="black"/>
</svg>
