<svg width="22" height="22" viewBox="0 0 22 22" fill="none" xmlns="http://www.w3.org/2000/svg">
<path d="M3.48438 0.5C1.82969 0.5 0.484375 1.84531 0.484375 3.5V18.5C0.484375 20.1547 1.82969 21.5 3.48438 21.5H18.4844C20.1391 21.5 21.4844 20.1547 21.4844 18.5V3.5C21.4844 1.84531 20.1391 0.5 18.4844 0.5H3.48438ZM9.85938 15.125V12.125H6.85938C6.23594 12.125 5.73438 11.6234 5.73438 11C5.73438 10.3766 6.23594 9.875 6.85938 9.875H9.85938V6.875C9.85938 6.25156 10.3609 5.75 10.9844 5.75C11.6078 5.75 12.1094 6.25156 12.1094 6.875V9.875H15.1094C15.7328 9.875 16.2344 10.3766 16.2344 11C16.2344 11.6234 15.7328 12.125 15.1094 12.125H12.1094V15.125C12.1094 15.7484 11.6078 16.25 10.9844 16.25C10.3609 16.25 9.85938 15.7484 9.85938 15.125Z" fill="black"/>
</svg>
