<svg width="25" height="24" viewBox="0 0 25 24" fill="none" xmlns="http://www.w3.org/2000/svg">
<path d="M20.3906 9.75C20.3906 11.9016 19.6922 13.8891 18.5156 15.5016L24.45 21.4406C25.0359 22.0266 25.0359 22.9781 24.45 23.5641C23.8641 24.15 22.9125 24.15 22.3266 23.5641L16.3922 17.625C14.7797 18.8063 12.7922 19.5 10.6406 19.5C5.25469 19.5 0.890625 15.1359 0.890625 9.75C0.890625 4.36406 5.25469 0 10.6406 0C16.0266 0 20.3906 4.36406 20.3906 9.75ZM10.6406 16.5C11.527 16.5 12.4048 16.3254 13.2237 15.9862C14.0427 15.647 14.7868 15.1498 15.4136 14.523C16.0404 13.8962 16.5376 13.1521 16.8768 12.3331C17.216 11.5142 17.3906 10.6364 17.3906 9.75C17.3906 8.86358 17.216 7.98583 16.8768 7.16689C16.5376 6.34794 16.0404 5.60382 15.4136 4.97703C14.7868 4.35023 14.0427 3.85303 13.2237 3.51381C12.4048 3.17459 11.527 3 10.6406 3C9.7542 3 8.87646 3.17459 8.05751 3.51381C7.23856 3.85303 6.49445 4.35023 5.86765 4.97703C5.24086 5.60382 4.74366 6.34794 4.40444 7.16689C4.06522 7.98583 3.89062 8.86358 3.89062 9.75C3.89062 10.6364 4.06522 11.5142 4.40444 12.3331C4.74366 13.1521 5.24086 13.8962 5.86765 14.523C6.49445 15.1498 7.23856 15.647 8.05751 15.9862C8.87646 16.3254 9.7542 16.5 10.6406 16.5Z" fill="black"/>
</svg>
