<svg width="24" height="24" viewBox="0 0 24 24" fill="none" xmlns="http://www.w3.org/2000/svg">
<g clip-path="url(#clip0_7_1990)">
<g clip-path="url(#clip1_7_1990)">
<path d="M0.754714 12.1969C-0.304661 12.8016 -0.206224 14.4141 0.923464 14.8828L7.50003 17.625V22.4672C7.50003 23.3156 8.1844 24 9.03284 24C9.48753 24 9.91878 23.7984 10.2094 23.4469L13.1157 19.9641L18.9235 22.3828C19.8094 22.7531 20.836 22.1719 20.9813 21.225L23.9813 1.725C24.0703 1.15781 23.8219 0.585934 23.3485 0.262496C22.875 -0.0609414 22.2563 -0.0890664 21.7547 0.196871L0.754714 12.1969ZM3.1969 13.3922L19.2047 4.24687L8.91096 15.75L8.96721 15.7969L3.1969 13.3922ZM18.9047 19.9406L11.0953 16.6828L21.1313 5.46562L18.9047 19.9406Z" fill="black"/>
</g>
</g>
<defs>
<clipPath id="clip0_7_1990">
<rect width="24" height="24" fill="white"/>
</clipPath>
<clipPath id="clip1_7_1990">
<path d="M0 0H24V24H0V0Z" fill="white"/>
</clipPath>
</defs>
</svg>
