<svg width="32" height="32" viewBox="0 0 32 32" fill="none" xmlns="http://www.w3.org/2000/svg">
<mask id="mask0_7_2005" style="mask-type:luminance" maskUnits="userSpaceOnUse" x="0" y="0" width="32" height="32">
<path d="M32 0H0V32H32V0Z" fill="white"/>
</mask>
<g mask="url(#mask0_7_2005)">
<path d="M23.8165 28.5761C20.1761 39.4752 10.466 42.8367 5.33209 29.3028C4.62383 27.4422 6.46971 26.7523 7.76145 25.9303C8.64585 25.3688 9.11191 24.8844 9.05686 24.3817C8.79998 22.0183 7.70273 15.4349 7.70273 15.4349L7.59264 15.222C7.59264 15.222 7.61833 15.1633 7.51191 15.2661C7.40182 15.3761 7.1486 16.5211 6.15411 16.5211C5.25503 16.5211 4.3486 16.1211 3.91558 13.3541C3.75044 12.3523 3.83851 9.72477 4.95411 9.24771C5.41282 9.05321 5.83484 8.98349 6.24585 9.21835C6.66053 9.45321 5.76879 8.41101 10.3559 4.59449C13.3358 2.10642 18.044 1.74312 19.9449 2.16514C21.8459 2.58715 23.7431 3.51559 24.5835 5.48624C25.6037 7.87156 23.633 9.68073 24.0697 15.1193C23.989 17.0862 24.0991 21.4018 18.6899 22.8477C17.6624 23.1229 17.9816 24.6239 19.5229 24.9908C21.9816 25.7615 23.8165 27.644 23.8165 28.5835" fill="white"/>
<path fill-rule="evenodd" clip-rule="evenodd" d="M23.8165 11.6404L23.8202 11.589C23.9706 10.2532 24.1211 8.9578 24.8147 7.79449C25.0532 7.95596 25.0238 8.16147 24.9504 8.35229C24.2202 10.2312 24.2899 12.1835 24.3559 14.1358L24.3706 14.6495C24.4477 17.0862 23.8385 19.3028 22.2165 21.1633C21.6514 21.8092 20.9027 22.2569 20.1431 22.6422C19.3578 23.0459 19.1926 23.3798 19.4385 24.2422L19.4679 24.3376C19.5192 24.4807 19.5706 24.6275 19.4312 24.7706C19.266 24.9394 19.0825 24.8917 18.888 24.8367L18.866 24.833C17.0465 24.3236 15.3404 23.473 13.8385 22.3266C13.6183 22.1651 13.4422 21.9486 13.2697 21.7358L13.2587 21.7211C13.1669 21.611 13.1486 21.4349 13.277 21.3394C13.3981 21.2477 13.4899 21.3211 13.5963 21.4055L13.633 21.4385C14.4343 22.0887 15.4069 22.4928 16.433 22.6018C16.9247 22.6532 17.4091 22.6349 17.9009 22.6165C18.1725 22.6055 18.444 22.5945 18.7192 22.5982C19.0936 22.5982 19.4055 22.4257 19.6991 22.2605L19.8018 22.2018C20.822 21.633 21.7945 20.9982 22.4514 19.9743C23.0422 19.0569 23.4018 18.0587 23.611 17.0055C23.8752 15.6807 23.8532 14.3376 23.8312 12.9761C23.8202 12.5358 23.8128 12.0881 23.8128 11.6404H23.8165ZM5.34309 8.87339C6.14676 8.81101 6.5908 9.2844 6.96878 9.83853C7.41676 10.5156 7.69842 11.2889 7.7908 12.0954C7.80915 12.2312 7.8275 12.3743 7.74676 12.5101C7.58163 12.5321 7.56695 12.4 7.56328 12.3046C7.54493 11.545 7.20731 10.8844 6.8697 10.2459C6.6275 9.78716 6.2752 9.34312 5.71741 9.23303C5.08621 9.10459 4.5064 9.67339 4.22016 10.4147C3.68805 11.7945 3.77979 13.1523 4.27153 14.4881C4.48438 15.0716 4.75227 15.6661 5.29172 16.0734C5.83484 16.4881 6.49172 16.4147 6.89172 15.8642L6.96511 15.7725C7.03851 15.6771 7.1119 15.5853 7.1486 15.4789C7.22566 15.2661 7.34676 15.0679 7.56328 15.0972C7.81282 15.1339 7.85686 15.4018 7.88254 15.611C8.1102 17.5334 8.37937 19.4507 8.68988 21.3615L8.9064 22.7853C9.00181 23.4128 9.1119 24.3156 9.03851 24.6972C9.03377 24.724 9.0301 24.7509 9.0275 24.778C9.01282 24.8807 9.00548 24.9615 8.87337 24.9798C8.69355 25.0092 8.61649 24.9064 8.5908 24.745C8.5064 24.1211 8.48071 23.8789 8.44401 22.9248C8.41098 22 8.23851 21.0899 8.06236 20.1761L7.87887 19.1853C7.68805 18.055 7.50089 16.9101 7.48254 15.6257L7.40915 15.7358C7.13025 16.1505 6.9064 16.4881 6.51007 16.6165C6.21586 16.7292 5.89345 16.7455 5.58937 16.6631C5.2853 16.5806 5.01529 16.4037 4.81832 16.1578C4.30121 15.5737 3.93796 14.8699 3.76144 14.1101C3.45319 12.8624 3.39814 11.6477 3.79447 10.4183C3.9853 9.82752 4.66419 8.77798 5.34309 8.87706V8.87339ZM6.61282 13.5523C6.77429 13.6697 6.92108 13.7725 7.05319 13.3541C7.01282 11.8055 6.51374 10.8147 5.73942 10.7743C6.15043 11.3101 6.54676 11.8312 6.58346 12.5541C6.43076 12.4761 6.29679 12.366 6.1908 12.2312C6.11741 12.1505 6.04401 12.0697 5.95227 12.011L5.84218 11.9229C5.66603 11.7908 5.48621 11.6514 5.18897 11.7578C5.32842 11.9706 5.51924 12.1248 5.71374 12.2716C5.93392 12.444 6.1541 12.6128 6.28621 12.8771C5.89722 13.1596 5.72842 13.5266 5.93025 13.9743C6.1064 14.3596 6.36695 14.6789 6.88071 14.7009C6.85869 14.4697 6.70823 14.3009 6.55777 14.1358C6.37429 13.9376 6.20181 13.7468 6.28254 13.4532C6.39997 13.3982 6.51007 13.4789 6.61282 13.5523Z" fill="black"/>
<path d="M37.9303 48.0734H-6.41469L-6.0991 45.7505C-6.0991 45.7505 -8.9468 44.7817 -9.22937 44.2202C-9.51561 43.6587 -6.14313 36.3596 -5.68075 35.2073C-5.21469 34.0514 -2.85506 29.967 -1.45689 29.189C0.0990686 28.3156 5.21099 26 5.50457 25.7651C6.46237 24.9945 8.53944 24.1945 8.53944 24.1945V25.3211L14.8293 35.633L15.2073 37.0202C15.2073 37.0202 19.0092 26.7156 19.3651 24.6239C19.666 22.8624 23.7615 24.9982 23.7615 24.9982C23.7615 24.9982 27.9486 27.589 29.0092 28.422C31.1523 30.1174 34.1468 33.5083 35.6404 37.2C36.4917 39.2917 38.3009 43.3725 38.5982 43.8532C38.8954 44.3303 37.6073 45.1743 37.6073 45.1743L37.9303 48.0771V48.0734Z" fill="white"/>
<path fill-rule="evenodd" clip-rule="evenodd" d="M28.8624 28.6605C27.978 27.9303 27.0899 27.2 26.1101 26.6349C25.9633 26.5541 25.8238 26.4661 25.6807 26.378C25.1963 26.0917 24.7119 25.7982 24.1615 25.622C24.0954 25.9963 24.1101 26.356 24.1431 26.7083C24.3192 28.4309 24.3205 30.167 24.1468 31.8899C24.0954 32.3119 24.1064 32.745 24.1174 33.1743L24.1248 33.6257C24.1248 33.8752 24.0881 34.1248 24.0257 34.3596C23.9376 34.6972 23.7798 34.8477 23.4385 34.8734C23.1339 34.8954 22.8294 34.9431 22.5284 34.9908C22.0414 35.0855 21.5456 35.1274 21.0495 35.1156C20.9468 35.1083 20.844 35.1119 20.7816 35.1156H20.7339L20.8624 35.2771C20.9798 35.4239 21.1193 35.5963 21.244 35.7761C21.4459 36.0587 21.4899 36.3046 21.2991 36.6899C20.3449 38.6128 19.0605 40.2605 17.6807 41.7651C17.2404 42.2459 16.822 42.7633 16.4073 43.2771C15.7211 44.1321 15.0349 44.9872 14.2128 45.6917C13.7982 46.0477 13.4238 46.455 13.0459 46.8661C12.6803 47.2801 12.292 47.6734 11.8826 48.044C11.3945 48.0697 10.9211 48.0697 10.4073 48.0697C10.6422 47.6 10.833 47.0972 11.0238 46.5945C11.1896 46.1421 11.3733 45.6965 11.5743 45.2587C11.9328 44.4845 12.2596 43.6961 12.5541 42.8954C12.7743 42.3083 12.7853 41.7138 12.4 41.178L11.9816 40.5908C11.233 39.545 10.4807 38.4991 9.62568 37.556C9.23669 37.1303 9.14862 36.455 9.39449 35.8312C9.45688 35.6771 9.51192 35.5193 9.57064 35.3578L9.6477 35.145C9.13394 34.9248 8.62018 34.9138 8.10275 34.8991C7.85688 34.8991 7.61468 34.8917 7.37614 34.8624L7.32477 34.855C6.53211 34.767 6.51743 34.7633 6.23853 33.8936C5.63278 32.0238 5.24369 30.0906 5.07889 28.1321C5.04703 27.5847 4.92425 27.0465 4.71559 26.5394C3.87889 26.8807 3.0789 27.2661 2.28257 27.6514L2.24587 27.6661C1.33945 28.1064 0.440363 28.5798 -0.45138 29.0642C-1.77248 29.7908 -2.80367 30.8917 -3.64404 32.2422L-3.66239 32.2716C-4.27523 33.255 -4.88441 34.2385 -5.36514 35.3174L-6.23854 37.2624L-6.72661 38.3376L-7.11193 39.1853C-7.44954 39.9266 -7.78716 40.6642 -8.10276 41.4128C-8.37487 42.0448 -8.62457 42.6862 -8.85138 43.3358C-8.99817 43.7651 -8.85505 43.9596 -8.54679 44.0697L-7.99633 44.2899C-7.48697 44.5168 -6.95406 44.6866 -6.40734 44.7963C-5.6734 44.9138 -5.01285 45.2183 -4.3523 45.5229L-4.30459 45.545L-4.25321 45.567C-3.14129 46.0807 -2.05138 46.6422 -0.957802 47.2073C-0.493908 47.458 -0.0454025 47.7362 0.385317 48.0404C0.0330238 48.0697 -0.31927 48.0771 -0.671563 48.0514C-1.62706 47.5245 -2.61923 47.0671 -3.64037 46.6826C-4.3523 46.3963 -5.06422 46.1101 -5.76881 45.7651C-5.81991 46.0304 -5.87619 46.2947 -5.93762 46.5578C-6.05505 47.0826 -6.16514 47.567 -6.17982 48.0734H-6.64221C-6.72294 47.8092 -6.66422 47.5596 -6.60918 47.3101L-6.56514 47.1083C-6.49175 46.6936 -6.5211 46.3853 -6.98349 46.2972C-7.66239 46.1615 -8.2312 45.7541 -8.80367 45.3468C-8.86473 45.3038 -8.9259 45.261 -8.98716 45.2183C-9.42753 44.9064 -9.56698 44.2569 -9.39817 43.4936C-9.20734 42.6312 -8.86973 41.8422 -8.52844 41.0532L-8.48074 40.9431C-7.88257 39.5486 -7.26239 38.1725 -6.63854 36.7963L-6.14679 35.7027C-5.20367 33.6073 -4.1101 31.5927 -2.56881 29.9633C-1.79817 29.1486 -0.917435 28.5358 0.0623817 28.0624C0.34862 27.9266 0.634859 27.7835 0.921098 27.6404C1.65504 27.2734 2.38899 26.9064 3.14128 26.6055C3.84954 26.3266 4.1688 25.9816 4.47706 25.6404C4.80734 25.2844 5.13027 24.9321 5.89357 24.6789L6.40367 24.5027C7.02018 24.2826 7.63669 24.0697 8.2899 24.0073H8.3266C8.37431 24.0037 8.42201 24 8.45137 23.9706L8.46238 23.9596C8.60917 23.8128 8.76697 23.6661 8.93945 23.9009C9.01367 24.002 9.0567 24.1225 9.06322 24.2477C9.06974 24.3729 9.03947 24.4973 8.97614 24.6055C8.71926 25.0018 8.85871 25.3761 8.98715 25.7211L8.99816 25.7541C9.30642 26.5615 11.2073 29.7725 11.8862 30.6936L12.1064 30.9835C12.8771 32.011 14.7633 34.5211 15.3321 36.2569C15.5596 35.8128 15.7211 35.3394 15.8789 34.8734L16.0697 34.3229C16.4489 33.2699 16.8062 32.2091 17.1413 31.1413C17.2771 30.7193 17.3982 30.2972 17.5156 29.8679C17.6147 29.5229 17.7101 29.178 17.8165 28.8404C17.9743 28.3193 18.1394 27.8055 18.3046 27.2917L18.6349 26.2569L18.8514 25.5523L19.0899 24.7633C19.3945 23.8165 19.4716 23.644 20.3376 23.6734C21.4092 23.7101 22.6716 24.0881 23.4055 24.3963C26.9284 25.8789 32.5248 29.556 35.1376 35.0459C35.9227 36.7372 36.6509 38.4544 37.3211 40.1945C37.9633 41.8092 38.466 43.0789 38.8844 43.6807C39.2367 44.1945 39.1963 44.4881 38.7376 44.8587C38.6784 44.9069 38.6209 44.9571 38.5651 45.0092C38.4183 45.145 38.2716 45.2807 38.0807 45.3394C37.8752 45.4018 37.8128 45.578 37.8422 45.8165C37.9296 46.5545 38.0091 47.2934 38.0807 48.033C37.9303 48.0697 37.7872 48.0697 37.5927 48.0367C37.4459 47.6991 37.4532 47.3761 37.4605 47.0642V47.0275C37.4789 46.4587 37.3321 45.9376 37.178 45.3908L37.0679 44.9908C36.9468 45.0422 36.8257 45.0899 36.7009 45.1339C36.444 45.2294 36.1982 45.3211 35.967 45.4569C35.1045 45.9794 34.1624 46.3575 33.178 46.5761C32.411 46.7376 32.0587 47.2037 32.1651 48.0734C31.9816 48.0771 31.7945 48.0624 31.611 48.0294C31.5376 46.4991 32.4624 46.1358 33.6587 45.6661L34.0881 45.4936C35.8275 44.778 38.0514 43.7615 38.0514 43.7615C38.0514 43.7615 35.8092 38.4807 35.0202 36.4881C33.4789 32.5761 29.6037 29.2697 29.4752 29.167L28.8624 28.6642V28.6605ZM17.2954 32.378C16.7129 34.1141 16.0814 35.8334 15.4018 37.5339C14.8881 38.8404 14.3303 40.1248 13.7725 41.4055L13.7174 41.5376C13.5156 41.9927 13.3284 42.455 13.1413 42.9138C12.8661 43.5816 12.5908 44.2532 12.2899 44.9064C12.044 45.4349 11.8312 45.9816 11.6183 46.5321L11.3248 47.2807L11.3064 47.3248C11.2624 47.4239 11.2183 47.5229 11.3211 47.6183C11.3982 47.6917 11.4826 47.6367 11.5486 47.5816C11.6367 47.5083 11.7248 47.4312 11.8055 47.3468L12.2826 46.8514L12.9578 46.1541L13.6734 45.4349C14.0624 45.0459 14.4514 44.6605 14.833 44.2605C15.1083 43.9743 15.3468 43.6477 15.5853 43.3211C15.8422 42.9725 16.0991 42.6238 16.3927 42.3303C17.1776 41.5576 17.8992 40.7231 18.5505 39.8349C18.778 39.5229 19.0165 39.2183 19.255 38.9138C19.7798 38.2349 20.3046 37.556 20.7266 36.7816C20.9174 36.433 20.9615 36.1908 20.6385 35.9083C20.3927 35.6881 20.1872 35.4092 19.9853 35.1376L19.9596 35.1009L19.945 35.0826C19.8349 34.9284 19.7027 34.7523 19.8275 34.5064C20.0991 34.4697 20.3743 34.4587 20.6495 34.4624C21.4202 34.4624 22.1908 34.433 22.9615 34.4037L23.0972 34.4C23.3615 34.389 23.5339 34.2385 23.5449 33.9083C23.5619 33.486 23.5839 33.0639 23.611 32.6422L23.666 31.7248C23.7321 30.6789 23.7982 29.633 23.7578 28.5872C23.7211 27.6954 23.7064 26.8 23.7541 25.9083C23.7798 25.4679 23.633 25.2624 23.3248 25.0679C22.4587 24.5248 21.5083 24.3963 20.5578 24.2642L20.1321 24.2055C19.8899 24.1688 19.8092 24.3303 19.7468 24.5284C19.6881 24.7193 19.6183 24.9101 19.5523 25.1009C19.4495 25.3835 19.3468 25.6697 19.2734 25.967C19.1523 26.4587 18.9798 26.9284 18.8073 27.3982C18.7046 27.6771 18.6018 27.9596 18.5101 28.2422C18.3413 28.7706 18.1908 29.3064 18.0404 29.8495C17.8238 30.6202 17.6073 31.4092 17.3211 32.1945C17.3181 32.2563 17.3095 32.3177 17.2954 32.378ZM8.46238 26.0661L8.48073 26.1101C9.08624 27.4605 12.011 31.8569 13.1743 33.4679L13.3394 33.6954C13.945 34.5138 15.0385 35.9963 14.7339 37.2037C14.4426 38.4184 14.0244 39.5992 13.4862 40.7266C13.4532 40.7963 13.4312 40.8734 13.4055 40.9505C13.3716 41.114 13.2914 41.2643 13.1743 41.3835C12.6972 40.5761 12.1358 39.8422 11.5743 39.1119C11.3211 38.7816 11.0679 38.4514 10.822 38.1138C10.6459 37.8716 10.4477 37.6514 10.2532 37.4275C10.0881 37.244 9.92293 37.0605 9.77247 36.8624C9.58532 36.6202 9.60367 36.4624 9.7211 36.2642C9.84954 36.0477 9.93027 35.8092 10.0147 35.5706L10.0807 35.3725C10.2532 34.8954 10.1358 34.6459 9.6844 34.5027C9.37247 34.4073 9.05321 34.4037 8.73394 34.4037C8.52844 34.4037 8.32293 34.4037 8.1211 34.3743C8.09908 34.3743 8.07339 34.3743 8.0477 34.3816L7.99633 34.389C6.97614 34.4073 6.88807 34.3156 6.56146 33.2587C6.10822 31.792 5.80333 30.2835 5.65137 28.756C5.61467 28.433 5.55596 28.1174 5.49724 27.8018C5.4422 27.5229 5.38715 27.2477 5.35412 26.9651C5.28073 26.3853 5.37247 26.1761 5.8422 25.9743C6.37798 25.7431 6.54312 25.5083 6.69357 25.2954C6.86238 25.0569 7.01284 24.844 7.64036 24.6862H7.6477C8.13577 24.5615 8.1688 24.5505 8.19082 25.1413C8.20183 25.4826 8.33761 25.7835 8.46238 26.0624V26.0661Z" fill="black"/>
<path d="M27.7798 4.11008C28.0341 4.6767 28.1677 5.29001 28.1721 5.91105C28.1765 6.53208 28.0517 7.14723 27.8055 7.71742C27.3395 8.80365 26.8771 9.89356 26.4624 11.0018C25.9707 12.3082 26.1798 13.5559 26.8294 14.7816C27.6 16.2312 28.4734 17.6367 28.9652 19.2257C29.4422 20.7853 29.6367 22.3633 28.9835 23.8936C28.4257 25.211 27.7505 26.4807 26.378 27.189C25.3163 27.7425 24.0862 27.8799 22.9285 27.5743C21.6074 27.2624 20.6422 26.4257 19.6771 25.556C19.1187 25.0395 18.5383 24.5473 17.9376 24.0807C17.4753 23.7284 17.189 23.244 16.822 22.822C16.7633 22.7559 16.7523 22.6789 16.8037 22.6092C16.8514 22.5358 16.9248 22.5431 17.0092 22.5615C18.9211 23.0385 20.1762 22.0477 21.2734 20.6679C22.4 19.2514 23.0789 17.622 23.5487 15.9009C24.1227 13.8702 24.3558 11.7584 24.2386 9.65136C24.1652 8.55778 24.0037 7.46054 23.7101 6.38531C23.3945 5.24769 22.9835 4.17613 22.3083 3.20365C22.0734 2.87338 21.7688 2.61283 21.5046 2.26421C20.8683 2.94272 20.1595 3.54941 19.3909 4.07338C17.8543 5.15379 16.1873 6.03541 14.4294 6.69723C12.8661 7.31008 11.2 7.49356 9.6147 7.99632C9.0718 8.16335 8.61185 8.52895 8.32663 9.02017C7.81925 9.85676 7.63767 10.8509 7.81654 11.8128C7.85324 12.0037 7.92296 12.2348 7.66241 12.2679C7.42388 12.2972 7.47159 12.0404 7.42755 11.8826C7.2514 11.2404 7.12663 10.5835 6.87709 9.95962C6.59819 9.26237 5.71012 8.73393 5.07892 8.93209C4.88594 8.99993 4.71146 9.11189 4.56939 9.25906C4.42731 9.40623 4.32157 9.58455 4.26058 9.7798C3.84715 10.8259 3.70085 11.9584 3.83489 13.0752C3.93397 13.8348 4.35232 14.422 4.77801 15.0128C5.35782 15.8275 5.73214 15.9303 6.67892 15.655C6.99085 15.5596 7.13397 15.3504 7.27709 15.1046C7.3358 14.9981 7.4092 14.8697 7.55599 14.8991C7.69911 14.9211 7.81287 15.0312 7.84957 15.1743C8.14314 16.5101 8.59452 17.8092 8.63856 19.2C8.70094 21.2404 6.91379 23.1009 4.98718 23.1339C3.77617 23.156 2.60186 22.9871 1.41654 22.8037C0.596185 22.6796 -0.240105 22.7095 -1.04952 22.8917C-1.92658 23.0862 -2.77429 23.3174 -3.49355 23.8862C-3.68805 24.0404 -3.84585 23.9633 -3.97796 23.7394C-4.70456 22.5137 -5.38713 21.2734 -5.76144 19.8862C-6.23851 18.0991 -6.45869 16.3303 -5.9486 14.4881C-5.74676 13.7541 -5.57429 13.0202 -5.23667 12.3376C-4.62016 11.0899 -3.80548 10.011 -2.64585 9.21833C-1.36144 8.3376 -0.0697002 7.47155 1.2147 6.59448C2.27892 5.87155 3.08626 4.90641 3.78351 3.84219C5.04957 1.91191 6.49177 0.135765 8.32296 -1.27708C9.59636 -2.2679 10.9835 -3.08992 12.5652 -3.47157C13.6881 -3.75047 14.8551 -3.80185 16 -3.62203C16.8661 -3.48992 17.7064 -3.31378 18.4698 -2.87708C18.9248 -2.61653 19.3945 -2.35965 19.7909 -2.02203C20.238 -1.66964 20.7488 -1.40674 21.2954 -1.24772C22.7633 -0.759647 24.1101 -0.0697389 25.3101 0.902738C26.3743 1.76512 27.2918 2.75228 27.7798 4.10641V4.11008Z" fill="black"/>
<path d="M19.2293 19.6697C19.4055 19.1486 19.3761 19.0752 18.8697 18.9834C18.4954 18.9174 18.1615 18.7523 17.8055 18.6385C17.4055 18.5101 17.1449 18.1321 16.7229 18.033C16.5027 19.1266 17.9596 20.1064 19.2257 19.6734L19.2293 19.6697Z" fill="white"/>
<path fill-rule="evenodd" clip-rule="evenodd" d="M16.6091 19.5082C16.9292 19.8272 17.3214 20.0645 17.7526 20.1999C18.1838 20.3353 18.6412 20.3649 19.0862 20.2862L19.3211 20.1945C19.4972 20.1248 19.6587 20.066 19.8055 19.9816C19.9963 19.8715 20.1467 19.644 19.9816 19.4752C19.6146 19.0972 19.7981 18.8807 20.1284 18.6605C20.2752 18.5651 20.3633 18.433 20.2862 18.2679C20.1871 18.0477 19.9926 18.1284 19.8458 18.1945C19.6419 18.2725 19.4257 18.3135 19.2073 18.3156C18.2972 18.4183 17.5596 17.9853 16.8293 17.5633L16.8073 17.5523C16.3743 17.2954 16.1101 17.3835 16.055 17.8899C16.0112 18.1843 16.0386 18.4849 16.1351 18.7665C16.2315 19.0481 16.3941 19.3025 16.6091 19.5082ZM18.8697 18.9835C19.3798 19.0752 19.4055 19.1486 19.2256 19.6734C17.9596 20.1064 16.5027 19.1229 16.7229 18.033C16.9431 18.0881 17.1266 18.2165 17.3027 18.3486C17.4532 18.4731 17.623 18.5723 17.8055 18.6422C17.9266 18.6789 18.044 18.7229 18.1614 18.767C18.3926 18.855 18.6201 18.9431 18.8697 18.9871V18.9835Z" fill="black"/>
<path d="M15.4862 17.3211C15.7871 17.4569 15.7688 17.6624 15.6403 17.8715C15.5449 18.0367 15.4018 18.1358 15.211 18.0183C15.0348 17.9082 15.0752 17.7578 15.1743 17.6147C15.255 17.5046 15.2844 17.3468 15.4862 17.3211Z" fill="black"/>
<path d="M19.8789 11.5376C19.7255 12.5171 19.7667 13.5172 20 14.4807C20.1725 15.3027 19.4422 16.477 18.2826 16.3046C17.8789 16.2459 17.6404 16.0073 17.5009 15.6514C17.4385 15.4936 17.4459 15.3284 17.622 15.2477C17.7688 15.1853 17.8936 15.2404 17.967 15.3945C18.1431 15.7651 18.4587 15.7394 18.7706 15.6477C19.1229 15.5413 19.3725 15.2954 19.3982 14.9174C19.4239 14.5468 19.4055 14.1725 19.3395 13.8018C19.1294 12.6987 19.2415 11.5585 19.6624 10.5174C19.7431 10.3082 19.8606 10.1174 20.0991 10.2128C20.3743 10.3229 20.1651 10.5358 20.1248 10.6936C20.0624 10.9651 19.9706 11.233 19.8789 11.5376Z" fill="black"/>
<path d="M21.3358 13.4495C21.8128 13.4605 22.2679 13.4899 22.7156 13.5413C22.8257 13.5559 22.8991 13.6624 22.8991 13.7871C22.8991 13.9082 22.8367 13.9926 22.7266 14.044C22.3156 14.2202 21.9193 14.3449 21.4899 14.0514C21.2514 13.8862 21.1596 13.7321 21.3358 13.4495ZM15.4716 13.2477C15.7284 13.2477 15.7578 13.3871 15.7284 13.5596C15.655 13.9339 14.9945 14.3816 14.6128 14.3119C14.3963 14.2752 14.2275 14.1651 14.2202 13.9266C14.2128 13.6807 14.3963 13.6257 14.5982 13.6183C14.9284 13.6073 15.178 13.4275 15.4716 13.2514V13.2477ZM14.2789 11.7651C14.4624 11.3248 14.6092 10.6862 15.1633 10.9394C15.9229 11.2844 15.6734 12.066 15.5193 12.6789C15.4606 12.9101 14.9872 13.2624 14.8477 13.2037C14.2495 12.9541 14.1431 12.4073 14.2789 11.7651ZM22.6055 13.1156C22.2899 13.3908 21.9817 13.3945 21.7908 13.0605C21.4605 12.4734 21.4752 11.8569 21.9119 11.3284C22.0037 11.2183 22.4183 11.1963 22.5101 11.2917C23.0239 11.8422 23.0459 12.4587 22.6055 13.1156Z" fill="black"/>
<path d="M16.1504 9.68072C15.8312 9.23668 15.2257 9.09356 14.7266 9.22201C14.2862 9.33944 13.9302 9.62567 13.4936 9.75045C13.3468 9.79081 13.2183 9.84953 13.1376 9.67338C13.0679 9.53026 13.0825 9.40182 13.2183 9.2954C13.9082 8.77063 15.1853 8.30824 16.1064 8.82201C16.3305 8.95978 16.5191 9.14834 16.6569 9.37246C16.778 9.54494 16.822 9.79815 16.6569 9.92659C16.4403 10.0954 16.2899 9.88256 16.1504 9.68072ZM22.9725 9.9009C22.6165 9.66237 22.2789 9.63301 21.9449 9.87155C21.8275 9.95595 21.6991 10.0477 21.578 9.9009C21.4569 9.75045 21.4899 9.58531 21.6257 9.43852C21.8312 9.21467 22.1101 9.17797 22.389 9.14494C22.7132 9.11414 23.0365 9.21247 23.2886 9.41859C23.5408 9.62472 23.7015 9.92199 23.7358 10.2459C23.7431 10.4037 23.7358 10.5798 23.5449 10.6238C23.3725 10.6605 23.2403 10.5615 23.1706 10.4073C23.1009 10.2532 23.0532 10.0881 22.9725 9.9009ZM19.4348 9.211C19.6257 8.96879 19.7284 8.66054 19.9669 8.45503C20.0587 8.37797 20.1284 8.2532 20.2789 8.3376C20.4147 8.41467 20.4257 8.55412 20.389 8.66788C20.2752 8.98347 20.1431 9.2954 19.9963 9.59999C19.9229 9.74678 19.7394 9.80182 19.5926 9.75412C19.3504 9.68072 19.4091 9.46421 19.4312 9.24402V9.20733L19.4348 9.211Z" fill="black"/>
<path d="M19.4385 9.20365C19.3651 9.35778 19.3064 9.51557 19.2293 9.66603C19.1706 9.77979 19.0752 9.87888 18.9357 9.83484C18.7669 9.78346 18.7523 9.64035 18.7889 9.49356C18.833 9.3431 18.8807 9.19998 18.9357 9.05319C19.0091 8.88071 18.9908 8.59814 19.277 8.63851C19.5853 8.68622 19.4385 8.94677 19.4385 9.16695V9.20365Z" fill="black"/>
<path d="M34.2569 48.2532L29.5413 48.3266C29.5413 48.3266 29.7982 46.8073 29.967 46.2715C30.3266 45.1192 29.4385 45.0642 29.2918 44.2899C29.145 43.5082 29.3798 43.3504 29.4532 42.9211C29.5266 42.488 29.167 42.5321 28.9248 42.2899C28.6826 42.044 28.8367 41.9963 28.9541 41.5816C29.0716 41.1669 28.1835 41.3725 27.7175 40.7009C27.2514 40.033 27.4385 39.3798 27.4385 39.3798C27.4385 39.3798 26.9101 39.2917 26.9982 38.7486C27.0863 38.2055 27.2918 37.5009 27.9523 37.1449C28.6129 36.7926 32.3119 36.3376 32.3119 36.3376C32.3119 36.3376 32.0184 33.1413 31.9927 32.4587C31.9707 31.7798 32.2129 30.022 32.7963 29.9413C33.3762 29.8569 33.6844 32.0036 33.8459 32.9725C34.0074 33.9449 35.0789 37.0458 35.1963 37.9853C35.3138 38.9247 35.0055 41.7614 34.9762 42.2422C34.9468 42.7303 34.3303 43.8899 34.0954 44.5945C33.8606 45.2991 34.2569 48.2532 34.2569 48.2532Z" fill="white"/>
<path d="M29.4092 48.3303C29.3725 47.6881 29.5927 47.0826 29.6954 46.4514C29.7725 45.9559 29.7945 45.5633 29.4202 45.1229C29.1958 44.8663 29.0562 44.5466 29.0207 44.2076C28.9853 43.8685 29.0556 43.5268 29.222 43.2293C29.3615 42.9578 29.3248 42.8 29.0569 42.6679C28.3817 42.3303 28.3303 42.1248 28.7303 41.4422C27.6991 41.2 27.3211 40.7449 27.2697 39.7064C27.2661 39.6147 27.2771 39.4862 27.2257 39.4385C26.356 38.6752 27.1083 38.0697 27.4385 37.4495C27.6844 36.9908 28.1284 36.8073 28.6606 36.7156C29.633 36.5541 30.5908 36.3376 31.5853 36.3706C31.8422 36.378 31.9339 36.2459 31.978 36.0037C32.0807 35.4128 31.9927 34.8147 31.9413 34.2312C31.8716 33.3945 31.7468 32.3853 31.8312 31.5339C31.8899 30.9981 32.7119 29.6991 32.8514 29.6954C33.1706 29.6844 33.3358 29.8165 33.3651 30.1578C33.3835 30.389 33.6294 31.8972 33.7358 32.3229C34.0661 33.6293 34.6275 34.8917 35.0752 36.6642C36.1321 40.8257 35.0239 42.5431 34.4184 44.6936C34.055 45.978 34.6312 48.3339 34.6312 48.3339C34.6312 48.3339 34.1835 48.3339 33.9229 48.2972C33.8275 47.3431 33.7615 46.4293 33.7138 45.5156C33.6844 44.9761 33.6587 44.444 33.9596 43.9376C34.2679 43.4165 34.5725 42.8734 34.6752 42.2679C34.8954 41.0385 35.0459 39.7981 34.9761 38.5394C34.9615 38.2275 34.8734 37.9376 34.8037 37.6367C34.6826 37.1046 34.4367 36.6202 34.2606 36.1174C34.0294 35.4752 34.0991 34.7853 33.8385 34.1614C33.7358 33.9156 33.6991 33.655 33.6477 33.3945C33.4275 32.3229 33.167 31.2587 32.9138 30.1578C32.7795 30.2296 32.666 30.3349 32.5843 30.4635C32.5027 30.5921 32.4556 30.7396 32.4477 30.8917C32.411 31.4715 32.2752 32.0403 32.3266 32.6202C32.4147 33.6844 32.433 34.7559 32.5835 35.8165C32.6092 36.0367 32.6642 36.2128 32.8624 36.3229C32.9945 36.3963 33.0862 36.5064 33.0349 36.6679C32.9761 36.8514 32.8147 36.8183 32.6826 36.7816C32.5358 36.7449 32.4073 36.7853 32.2679 36.7853C31.3872 36.7926 30.5431 37.0312 29.6697 37.1156C28.7413 37.2 27.8459 37.4459 27.5046 38.5101C27.4642 38.6385 27.3248 38.7743 27.4606 38.8844C27.578 38.9835 27.7028 39.0972 27.9193 39.0128C29.3138 38.4807 30.7743 38.4073 32.2459 38.444C32.4477 38.455 32.6495 38.5064 32.833 38.5981C32.9541 38.6605 33.0532 38.7303 33.0092 38.8807C32.9725 39.0092 32.855 39.0165 32.7376 39.0018C31.8275 38.9027 30.9358 39.0715 30.0367 39.1633C29.4349 39.222 28.8257 39.2514 28.2569 39.4936C28.0257 39.5963 27.8349 39.7137 27.7982 39.9743C27.7615 40.2422 27.8642 40.4587 28.0734 40.6348C28.2459 40.7816 28.4404 40.7853 28.6495 40.7853H32.778C32.9651 40.7853 33.1523 40.8 33.3395 40.822C33.4312 40.8293 33.5229 40.8844 33.5303 40.9945C33.545 41.0972 33.4826 41.167 33.4055 41.2293C33.2954 41.3101 33.1706 41.3064 33.0459 41.3211C32.2055 41.4202 31.3615 41.3798 30.5174 41.3798C29.9486 41.3798 29.4532 41.5413 29.0495 42.022C29.6 42.2972 30.1101 42.5945 30.6459 42.811C31.189 43.0275 31.8422 42.7009 32.4147 43.0679C31.7908 43.6293 30.9615 43.6257 29.7358 43.0862C29.6624 43.7541 29.4275 44.4073 30.044 44.9578C30.2642 45.1523 30.3376 45.4092 30.3486 45.7101C30.3817 46.6128 30.0807 47.4605 29.9339 48.3339H29.4092V48.3303Z" fill="black"/>
</g>
</svg>
