<svg width="22" height="24" viewBox="0 0 22 24" fill="none" xmlns="http://www.w3.org/2000/svg">
<path d="M14.9219 6C14.9219 5.00544 14.5268 4.05161 13.8235 3.34835C13.1203 2.64509 12.1664 2.25 11.1719 2.25C10.1773 2.25 9.22349 2.64509 8.52022 3.34835C7.81696 4.05161 7.42188 5.00544 7.42188 6C7.42188 6.99456 7.81696 7.94839 8.52022 8.65165C9.22349 9.35491 10.1773 9.75 11.1719 9.75C12.1664 9.75 13.1203 9.35491 13.8235 8.65165C14.5268 7.94839 14.9219 6.99456 14.9219 6ZM5.17188 6C5.17188 4.4087 5.80402 2.88258 6.92923 1.75736C8.05445 0.632141 9.58058 0 11.1719 0C12.7632 0 14.2893 0.632141 15.4145 1.75736C16.5397 2.88258 17.1719 4.4087 17.1719 6C17.1719 7.5913 16.5397 9.11742 15.4145 10.2426C14.2893 11.3679 12.7632 12 11.1719 12C9.58058 12 8.05445 11.3679 6.92923 10.2426C5.80402 9.11742 5.17188 7.5913 5.17188 6ZM2.98281 21.75H19.3609C18.9438 18.7828 16.3938 16.5 13.3141 16.5H9.02969C5.95 16.5 3.4 18.7828 2.98281 21.75ZM0.671875 22.6078C0.671875 17.9906 4.4125 14.25 9.02969 14.25H13.3141C17.9313 14.25 21.6719 17.9906 21.6719 22.6078C21.6719 23.3766 21.0484 24 20.2797 24H2.06406C1.29531 24 0.671875 23.3766 0.671875 22.6078Z" fill="black"/>
</svg>
